<?xml version="1.0" encoding="utf-8"?>
<!-- Generator: Adobe Illustrator 16.0.0, SVG Export Plug-In . SVG Version: 6.00 Build 0)  -->
<!DOCTYPE svg PUBLIC "-//W3C//DTD SVG 1.1//EN" "http://www.w3.org/Graphics/SVG/1.1/DTD/svg11.dtd">
<svg version="1.1" id="Layer_1" xmlns="http://www.w3.org/2000/svg" xmlns:xlink="http://www.w3.org/1999/xlink" x="0px" y="0px"
	 width="32px" height="32px" viewBox="0 0 32 32" enable-background="new 0 0 32 32" xml:space="preserve">
<rect x="0.618" y="0.618" fill="#FFFFFF" stroke="#1D1D1B" stroke-miterlimit="10" width="30.764" height="30.765"/>
<g>
	<path d="M15.203,11.764v8.156h-1.592v-5.214l-2.907,2.884l-2.896-2.884v5.214H6.204v-8.156h0.889l3.611,3.588l3.623-3.588H15.203z"
		/>
	<path d="M23.186,13.448h-2.215v6.472h-1.604v-6.472h-2.238v-1.604h6.057V13.448z"/>
	<path d="M25.796,19.02c0,0.27-0.094,0.502-0.282,0.693c-0.189,0.191-0.426,0.289-0.71,0.289c-0.139,0-0.268-0.029-0.387-0.082
		s-0.223-0.125-0.312-0.213c-0.088-0.088-0.157-0.191-0.207-0.312c-0.05-0.117-0.075-0.244-0.075-0.375
		c0-0.275,0.097-0.512,0.288-0.703c0.192-0.191,0.423-0.289,0.692-0.289c0.284,0,0.521,0.098,0.71,0.289
		C25.702,18.508,25.796,18.744,25.796,19.02z"/>
</g>
</svg>
